PathFileType	4	(X/Y/Z)	Run_300 01
DataRate	CameraRate	NumFrames	NumMarkers	Units	OrigDataRate	OrigDataStartFrame	OrigNumFrames
100	100	6	42	mm	100	7	128
Frame#	Time	LASI			RASI			LPSI			RPSI			RTH1			RTH2			RTH3			LTH1			LTH2			LTH3			RTB1			RTB2			RTB3			LTB1			LTB2			LTB3			RCAL			RTOE			RMT5			LCAL			LTOE			LACR			RACR			CLAV			C7			RUA1			RUA2			RUA3			RLEL			RMEL			LUA1			LUA2			LUA3			LLEL			LMEL			RFAsuperior			RFAradius			RFAulna			LFAsuperior			LFAradius			LFAulna			LMT5		
		X1	Y1	Z1	X2	Y2	Z2	X3	Y3	Z3	X4	Y4	Z4	X5	Y5	Z5	X6	Y6	Z6	X7	Y7	Z7	X8	Y8	Z8	X9	Y9	Z9	X10	Y10	Z10	X11	Y11	Z11	X12	Y12	Z12	X13	Y13	Z13	X14	Y14	Z14	X15	Y15	Z15	X16	Y16	Z16	X17	Y17	Z17	X18	Y18	Z18	X19	Y19	Z19	X20	Y20	Z20	X21	Y21	Z21	X22	Y22	Z22	X23	Y23	Z23	X24	Y24	Z24	X25	Y25	Z25	X26	Y26	Z26	X27	Y27	Z27	X28	Y28	Z28	X29	Y29	Z29	X30	Y30	Z30	X31	Y31	Z31	X32	Y32	Z32	X33	Y33	Z33	X34	Y34	Z34	X35	Y35	Z35	X36	Y36	Z36	X37	Y37	Z37	X38	Y38	Z38	X39	Y39	Z39	X40	Y40	Z40	X41	Y41	Z41	X42	Y42	Z42	

7	  0.070000	728.204343	1061.732275	-452.174832	731.989160	1039.958583	-196.578256	549.954157	1130.423645	-363.678191	554.798994	1131.214424	-278.570957	637.594759	914.060255	-142.159261	647.046114	768.564391	-161.123506	540.361413	690.539408	-173.225723	683.549955	941.136104	-510.155488	785.023537	848.990940	-487.640179	747.211403	695.420397	-468.713098	450.199566	453.878941	-225.446294	338.835687	430.890710	-181.417714	282.929965	342.669969	-239.384595	853.723135	488.649516	-403.534177	804.042364	402.857835	-465.043639	862.213047	283.279713	-389.718680	112.925558	377.821851	-276.962730	203.920628	162.054670	-271.235830	140.308116	167.527766	-202.023728	754.889839	128.175617	-359.262479	984.446276	132.676419	-369.468632	680.179031	1589.753157	-482.744285	696.933371	1564.391969	-150.355385	765.916855	1534.156359	-303.376203	628.193506	1607.016605	-328.813689	646.702180	1457.233386	-65.190217	571.050926	1384.104395	-82.276520	614.676515	1347.372217	-30.137127	603.978413	1255.417363	  0.715501	567.910880	1229.122433	-71.925854	595.870170	1538.693521	-578.920212	508.366984	1491.549341	-565.662167	526.035625	1459.899772	-639.314837	484.673316	1388.740211	-686.567663	427.971784	1379.707475	-633.948180	673.739003	1213.981314	-11.588217	851.706412	1199.674469	-114.769552	833.687313	1139.216341	-81.950005	535.536584	1274.269364	-664.681768	621.991263	1182.908799	-566.409083	569.939054	1148.058448	-590.833578	954.989426	 83.462053	-441.305202	
8	  0.080000	728.606394	1056.756539	-452.431457	734.008873	1037.524858	-197.037373	550.373025	1126.145560	-363.325832	555.840957	1127.039648	-278.190359	642.064127	910.134932	-141.633911	654.121133	764.457724	-159.764988	549.682343	684.428124	-172.196943	682.804861	935.900412	-510.093420	780.391208	840.945543	-487.747995	741.137292	689.380350	-468.646020	455.249940	451.855744	-223.933835	342.410106	435.980815	-180.405740	281.306074	352.120081	-239.077803	849.999427	484.195087	-402.112460	801.637443	397.636542	-463.400889	862.766601	279.219904	-388.663861	113.436057	397.013308	-276.854311	192.749496	176.667315	-268.249330	129.663526	186.998874	-197.921719	757.455514	122.853649	-357.365063	987.250710	128.863377	-368.255574	679.829531	1584.889542	-485.239903	696.544236	1561.892161	-152.274762	765.701617	1531.181691	-304.990881	628.039933	1603.582107	-331.305095	644.999697	1456.011306	-66.480512	568.826365	1383.418992	-84.274347	611.653341	1346.564873	-31.280144	599.580783	1254.227614	 -0.530266	563.543341	1228.800524	-72.657489	596.852259	1531.238217	-581.679887	510.380092	1482.590686	-569.654159	529.887969	1450.464977	-642.924846	490.489430	1378.783190	-691.159485	433.210771	1368.630528	-638.085651	667.888892	1210.747059	-11.608656	846.367907	1190.184130	-114.366137	826.592696	1131.023438	-80.233908	543.227795	1265.331376	-666.894970	630.786878	1176.822002	-566.826439	579.825649	1140.750579	-591.659625	958.518739	 78.456959	-439.859825	
9	  0.090000	728.643878	1050.939785	-452.428914	735.834020	1034.428661	-197.878507	550.427471	1121.026404	-362.715846	555.896174	1122.058718	-277.141943	646.896640	905.254456	-141.001093	661.690265	759.713087	-158.303342	559.797382	677.332310	-170.766453	681.492919	930.304535	-510.333582	776.552551	833.501785	-488.320472	736.637493	683.599639	-468.871205	461.648011	449.356467	-222.458738	347.763269	440.397842	-179.264398	281.651871	361.207124	-238.704181	846.040639	478.859242	-401.326585	798.112855	391.755430	-461.939329	861.360990	274.087173	-387.745259	116.236934	415.718526	-275.873747	184.079058	191.327034	-266.073572	122.272751	205.834190	-194.486147	756.758866	118.656904	-354.799720	986.468677	121.860263	-365.644214	679.455624	1579.062272	-487.678632	696.048365	1558.641949	-154.146108	765.473864	1527.385001	-306.446380	627.828076	1599.312576	-333.726080	643.082691	1454.048740	-68.016156	566.476511	1382.047699	-86.289350	608.404838	1345.025039	-32.395371	594.979274	1252.451110	 -1.550431	558.857492	1227.752931	-73.376523	598.154098	1522.797157	-584.656375	512.676688	1472.440247	-574.041185	534.182757	1439.923086	-646.725654	496.969726	1367.548312	-695.233694	439.037874	1356.344296	-642.601102	662.016780	1206.936554	-11.425078	840.613878	1179.623276	-112.848393	818.668120	1121.491133	-78.188006	551.829069	1255.359220	-669.153612	640.286690	1169.973022	-567.200842	590.657400	1132.650985	-592.617794	957.513900	 70.466631	-436.691212	
10	  0.100000	728.324959	1043.945169	-452.048182	737.303365	1030.296526	-199.023476	550.125431	1114.727028	-361.726311	555.348436	1115.961170	-275.611599	651.967634	899.109383	-140.268968	669.997669	753.988493	-156.775621	571.066379	668.899662	-168.809189	679.460467	924.108571	-510.732645	774.028515	826.949061	-489.471638	734.034667	677.781547	-469.076802	470.084889	446.174371	-220.898812	355.789472	443.840282	-177.878458	285.053315	369.616681	-238.100918	841.735675	471.980345	-401.168987	792.930422	384.712418	-460.627297	856.499788	267.138027	-386.580397	122.507662	433.435926	-273.744090	179.371597	205.842092	-264.974846	119.612338	223.504599	-191.899093	750.232695	115.830306	-350.985708	979.581853	110.541198	-361.312536	679.166597	1571.827010	-490.080914	695.371126	1554.178110	-155.948426	765.187046	1522.320550	-307.740870	627.551287	1593.797886	-336.081756	640.937282	1451.001635	-69.727589	563.922908	1379.588788	-88.283492	604.848569	1342.320644	-33.478315	590.028821	1249.682119	 -2.317181	553.737351	1225.574411	-74.086136	599.972019	1512.891727	-587.915742	515.482523	1460.579099	-578.954288	539.157557	1427.795419	-650.744598	504.518262	1354.562495	-698.849222	445.899618	1342.229429	-647.612789	655.790292	1201.988249	-10.958225	834.198227	1167.518437	-109.808620	809.517267	1109.994367	-75.693361	561.766328	1243.963715	-671.433801	650.829743	1162.099271	-567.422280	602.915980	1123.412479	-593.697322	948.878747	 59.933882	-432.186074	
11	  0.110000	727.913281	1035.909089	-451.363197	738.355364	1025.094765	-200.104887	549.730206	1107.383470	-360.428283	555.334818	1108.726345	-274.334855	656.874642	891.943678	-139.528113	679.058648	747.318054	-155.304113	583.434446	659.415779	-166.487545	677.078910	917.159877	-510.722048	772.744534	821.067737	-490.529586	732.629316	671.271773	-468.762754	480.581173	442.373044	-219.036363	366.441876	446.373616	-176.185932	291.627966	377.112931	-237.083375	837.007643	463.298395	-400.861047	786.030163	376.397972	-459.023120	847.024022	258.229559	-384.090029	132.246341	449.682012	-270.843429	178.846592	219.750401	-264.498022	121.346266	239.655804	-189.867574	736.022944	113.145755	-345.605962	965.312602	 96.848307	-356.106006	679.138054	1563.289943	-492.464842	694.456637	1548.377844	-157.654451	764.817252	1515.932057	-309.025904	627.241623	1587.064164	-338.386084	638.654155	1446.774725	-71.330531	561.132599	1375.929632	-90.176410	601.016014	1338.316603	-34.544337	584.670037	1245.768266	 -2.978005	548.266689	1222.226778	-74.818726	602.342829	1501.575851	-591.395917	518.975600	1447.161972	-584.222891	544.921880	1414.233087	-654.894502	513.248803	1340.160898	-702.511303	454.070793	1326.341608	-652.983480	648.821718	1195.578018	-10.264160	827.060383	1153.826698	-105.643791	799.189449	1096.686283	-72.822665	572.960226	1231.432297	-673.637625	662.396399	1153.461678	-567.306595	616.584797	1113.174779	-594.698002	931.602758	 50.566653	-428.364310	
12	  0.120000	727.411436	1027.008619	-450.584168	739.056551	1018.956772	-201.012411	549.244508	1099.176510	-359.036172	556.000475	1100.201867	-273.655495	661.546649	884.039904	-138.861340	688.799355	740.024239	-153.954235	596.703352	649.345686	-164.065661	674.960480	909.370725	-509.865160	772.036239	815.167810	-490.289035	731.732839	663.757580	-467.970147	492.919731	438.128500	-216.817179	379.292014	448.128365	-174.220829	301.036972	383.539081	-235.607347	831.575477	453.115227	-399.301644	777.382349	367.305516	-456.392751	832.193365	247.983565	-379.132592	144.966841	464.057539	-267.770874	182.052181	232.499447	-263.801031	126.597780	254.107504	-187.985984	713.413851	108.638260	-338.860187	943.654332	 84.659915	-351.211631	679.422464	1553.805395	-494.772910	693.241421	1541.368050	-159.161370	764.472034	1508.344274	-310.388626	626.891234	1579.284896	-340.546068	636.209694	1441.163338	-72.661704	558.082708	1371.046307	-91.896825	596.935927	1332.984036	-35.608182	578.917665	1240.769120	 -3.686169	542.577252	1217.867386	-75.622279	605.217315	1489.087732	-595.034476	523.257664	1432.531405	-589.568156	551.605772	1399.587418	-659.117109	523.112583	1324.900601	-706.574066	463.642022	1309.109200	-658.501639	641.072715	1187.807345	 -9.449343	819.225734	1138.538652	-101.003569	787.908463	1082.059668	-69.664962	585.190210	1218.279482	-675.644193	674.837565	1144.475788	-566.682724	631.420513	1102.331143	-595.344904	906.779955	 45.815407	-426.503670	
